<svg xmlns="http://www.w3.org/2000/svg" viewBox="0 0 32 40" fill="none" x="0px" y="0px"><path fill-rule="evenodd" clip-rule="evenodd" d="M16 0C7.16344 0 0 7.16344 0 16C0 24.8366 7.16344 32 16 32C24.8366 32 32 24.8366 32 16C32 7.16344 24.8366 0 16 0ZM16 4.03845C16.5523 4.03845 17 4.48617 17 5.03845V15.4231C17 15.6205 16.9416 15.8135 16.8321 15.9778L12.2167 22.9008C11.9103 23.3604 11.2894 23.4845 10.8299 23.1782C10.3704 22.8718 10.2462 22.251 10.5526 21.7914L15 15.1203L15 5.03845C15 4.48617 15.4477 4.03845 16 4.03845Z" fill="black"/><text x="0" y="47" fill="#000000" font-size="5px" font-weight="bold" font-family="'Helvetica Neue', Helvetica, Arial-Unicode, Arial, Sans-serif">Created by HideMaru</text><text x="0" y="52" fill="#000000" font-size="5px" font-weight="bold" font-family="'Helvetica Neue', Helvetica, Arial-Unicode, Arial, Sans-serif">from the Noun Project</text></svg>